<svg width="22" height="21" viewBox="0 0 22 21" fill="none" xmlns="http://www.w3.org/2000/svg">
<path d="M19.3702 0H2.32443C1.70795 0 1.11672 0.227661 0.680809 0.6329C0.244894 1.03814 0 1.58776 0 2.16086L0 18.0071C0 18.5802 0.244894 19.1298 0.680809 19.5351C1.11672 19.9403 1.70795 20.168 2.32443 20.168H8.97084V13.3113H5.92003V10.084H8.97084V7.62422C8.97084 4.82636 10.7626 3.2809 13.5069 3.2809C14.8211 3.2809 16.1955 3.49879 16.1955 3.49879V6.24487H14.6812C13.1892 6.24487 12.7238 7.10561 12.7238 7.98841V10.084H16.0545L15.5219 13.3113H12.7238V20.168H19.3702C19.9867 20.168 20.5779 19.9403 21.0139 19.5351C21.4498 19.1298 21.6947 18.5802 21.6947 18.0071V2.16086C21.6947 1.58776 21.4498 1.03814 21.0139 0.6329C20.5779 0.227661 19.9867 0 19.3702 0Z" fill="#D9D9D9"/>
</svg>
