<svg width="29" height="33" viewBox="0 0 29 33" fill="none" xmlns="http://www.w3.org/2000/svg">
<path d="M3.43391 21.3219C-0.378355 18.9983 -0.408027 13.4735 3.37906 11.1091L19.6154 0.972047C23.5995 -1.5154 28.7677 1.33251 28.7929 6.02932L28.9009 26.1284C28.9261 30.8252 23.7888 33.7284 19.7782 31.2839L3.43391 21.3219Z" fill="#0357E5"/>
<path d="M25 16C25 19.866 21.866 23 18 23C14.134 23 11 19.866 11 16C11 12.134 14.134 8.99999 18 8.99999C21.866 8.99999 25 12.134 25 16Z" fill="white"/>
<path d="M14.1896 14.8182H14.7585L15.3594 16.2841H15.3849L15.9858 14.8182H16.5547V17H16.1072V15.5799H16.0891L15.5245 16.9893H15.2198L14.6552 15.5746H14.6371V17H14.1896V14.8182Z" fill="black"/>
<path d="M18.3815 15.5234C18.3666 15.4716 18.3456 15.4258 18.3186 15.386C18.2916 15.3455 18.2586 15.3114 18.2195 15.2837C18.1812 15.2553 18.1371 15.2337 18.0874 15.2187C18.0384 15.2038 17.9841 15.1964 17.9244 15.1964C17.8129 15.1964 17.7149 15.2241 17.6304 15.2795C17.5466 15.3349 17.4813 15.4155 17.4344 15.5213C17.3875 15.6264 17.3641 15.755 17.3641 15.9069C17.3641 16.0589 17.3871 16.1882 17.4333 16.2947C17.4795 16.4013 17.5448 16.4826 17.6293 16.5387C17.7139 16.5941 17.8136 16.6218 17.9287 16.6218C18.0331 16.6218 18.1222 16.6033 18.1961 16.5664C18.2707 16.5287 18.3275 16.4758 18.3666 16.4077C18.4063 16.3395 18.4262 16.2589 18.4262 16.1658L18.52 16.1797H17.9575V15.8324H18.8705V16.1072C18.8705 16.299 18.83 16.4638 18.749 16.6015C18.668 16.7386 18.5565 16.8444 18.4145 16.919C18.2724 16.9929 18.1098 17.0298 17.9266 17.0298C17.722 17.0298 17.5423 16.9847 17.3875 16.8945C17.2327 16.8036 17.1119 16.6747 17.0253 16.5078C16.9394 16.3402 16.8964 16.1413 16.8964 15.9112C16.8964 15.7344 16.922 15.5767 16.9731 15.4382C17.0249 15.299 17.0974 15.1811 17.1904 15.0845C17.2835 14.9879 17.3918 14.9144 17.5153 14.864C17.6389 14.8136 17.7728 14.7883 17.917 14.7883C18.0406 14.7883 18.1556 14.8064 18.2621 14.8427C18.3687 14.8782 18.4631 14.9286 18.5455 14.9939C18.6286 15.0593 18.6965 15.1371 18.749 15.2273C18.8016 15.3167 18.8353 15.4155 18.8502 15.5234H18.3815Z" fill="black"/>
<path d="M20.5646 14.8182H21.0259V16.2351C21.0259 16.3942 20.9879 16.5334 20.9119 16.6527C20.8366 16.772 20.7312 16.865 20.5955 16.9318C20.4599 16.9979 20.3018 17.0309 20.1214 17.0309C19.9403 17.0309 19.7819 16.9979 19.6463 16.9318C19.5106 16.865 19.4052 16.772 19.3299 16.6527C19.2546 16.5334 19.217 16.3942 19.217 16.2351V14.8182H19.6783V16.1957C19.6783 16.2788 19.6964 16.3526 19.7326 16.4172C19.7695 16.4819 19.8214 16.5327 19.8881 16.5696C19.9549 16.6065 20.0327 16.625 20.1214 16.625C20.2109 16.625 20.2887 16.6065 20.3547 16.5696C20.4215 16.5327 20.473 16.4819 20.5092 16.4172C20.5462 16.3526 20.5646 16.2788 20.5646 16.1957V14.8182Z" fill="black"/>
</svg>
