<svg width="22" height="21" viewBox="0 0 22 21" fill="none" xmlns="http://www.w3.org/2000/svg">
<path d="M20.3319 0.20459H1.73167C0.879376 0.20459 0.18689 0.857349 0.18689 1.65867V18.9185C0.18689 19.7198 0.879376 20.3726 1.73167 20.3726H20.3319C21.1842 20.3726 21.8816 19.7198 21.8816 18.9185V1.65867C21.8816 0.857349 21.1842 0.20459 20.3319 0.20459ZM6.74372 17.4914H3.52826V7.86662H6.74856V17.4914H6.74372ZM5.13599 6.5521C4.10452 6.5521 3.2716 5.77329 3.2716 4.81892C3.2716 3.86454 4.10452 3.08573 5.13599 3.08573C6.16261 3.08573 7.00037 3.86454 7.00037 4.81892C7.00037 5.7778 6.16745 6.5521 5.13599 6.5521ZM18.7968 17.4914H15.5814V12.8096C15.5814 11.6931 15.5572 10.2571 13.9107 10.2571C12.2352 10.2571 11.9785 11.4726 11.9785 12.7285V17.4914H8.76306V7.86662H11.8478V9.18114H11.8914C12.3223 8.42484 13.3732 7.62803 14.9373 7.62803C18.1915 7.62803 18.7968 9.62232 18.7968 12.2153V17.4914Z" fill="#D9D9D9"/>
</svg>
