<svg width="133" height="49" viewBox="0 0 133 49" fill="none" xmlns="http://www.w3.org/2000/svg">
<path d="M41.8849 16.8182H44.5398L47.3438 23.6591H47.4631L50.267 16.8182H52.9219V27H50.8338V20.3729H50.7493L48.1143 26.9503H46.6925L44.0575 20.348H43.973V27H41.8849V16.8182ZM56.8333 27.1442C56.3461 27.1442 55.9119 27.0597 55.5307 26.8906C55.1496 26.7183 54.848 26.4647 54.6259 26.13C54.4071 25.7919 54.2978 25.371 54.2978 24.8672C54.2978 24.4429 54.3757 24.0866 54.5314 23.7983C54.6872 23.5099 54.8993 23.2779 55.1678 23.1023C55.4363 22.9266 55.7412 22.794 56.0826 22.7045C56.4273 22.6151 56.7885 22.5521 57.1664 22.5156C57.6105 22.4692 57.9685 22.4261 58.2402 22.3864C58.512 22.3433 58.7092 22.2803 58.8319 22.1974C58.9545 22.1146 59.0158 21.992 59.0158 21.8295V21.7997C59.0158 21.4848 58.9164 21.2412 58.7175 21.0689C58.522 20.8965 58.2435 20.8104 57.8823 20.8104C57.5011 20.8104 57.1979 20.8949 56.9725 21.0639C56.7471 21.2296 56.598 21.4384 56.525 21.6903L54.5662 21.5312C54.6657 21.0672 54.8612 20.6662 55.1529 20.3281C55.4445 19.9867 55.8207 19.7249 56.2814 19.5426C56.7454 19.357 57.2824 19.2642 57.8922 19.2642C58.3165 19.2642 58.7225 19.3139 59.1103 19.4134C59.5014 19.5128 59.8477 19.6669 60.1493 19.8757C60.4542 20.0845 60.6945 20.353 60.8702 20.6811C61.0459 21.0059 61.1337 21.3954 61.1337 21.8494V27H59.1252V25.9411H59.0655C58.9429 26.1797 58.7788 26.3902 58.5733 26.5724C58.3678 26.7514 58.1209 26.8923 57.8326 26.995C57.5442 27.0945 57.2111 27.1442 56.8333 27.1442ZM57.4398 25.6825C57.7514 25.6825 58.0265 25.6212 58.2651 25.4986C58.5037 25.3726 58.691 25.2036 58.8269 24.9915C58.9628 24.7794 59.0307 24.5391 59.0307 24.2706V23.4602C58.9644 23.5033 58.8733 23.5431 58.7573 23.5795C58.6446 23.6127 58.517 23.6442 58.3745 23.674C58.2319 23.7005 58.0894 23.7254 57.9469 23.7486C57.8044 23.7685 57.6751 23.7867 57.5591 23.8033C57.3105 23.8397 57.0935 23.8977 56.9078 23.9773C56.7222 24.0568 56.5781 24.1645 56.4753 24.3004C56.3726 24.433 56.3212 24.5987 56.3212 24.7976C56.3212 25.0859 56.4256 25.3063 56.6344 25.4588C56.8465 25.608 57.115 25.6825 57.4398 25.6825ZM72.8082 20.1094C72.7386 19.8674 72.6409 19.6536 72.5149 19.468C72.389 19.2791 72.2348 19.12 72.0526 18.9908C71.8736 18.8582 71.6681 18.7571 71.4361 18.6875C71.2074 18.6179 70.9538 18.5831 70.6754 18.5831C70.1551 18.5831 69.6977 18.7124 69.3033 18.9709C68.9122 19.2294 68.6072 19.6056 68.3885 20.0994C68.1697 20.59 68.0604 21.1899 68.0604 21.8991C68.0604 22.6084 68.1681 23.2116 68.3835 23.7088C68.599 24.206 68.9039 24.5855 69.2983 24.8473C69.6927 25.1058 70.1584 25.2351 70.6953 25.2351C71.1825 25.2351 71.5985 25.1489 71.9432 24.9766C72.2912 24.8009 72.5563 24.554 72.7386 24.2358C72.9242 23.9176 73.017 23.5414 73.017 23.1072L73.4545 23.1719H70.8295V21.5511H75.0902V22.8338C75.0902 23.7287 74.9013 24.4976 74.5234 25.1406C74.1456 25.7803 73.6252 26.2741 72.9624 26.6222C72.2995 26.9669 71.5405 27.1392 70.6854 27.1392C69.7308 27.1392 68.8923 26.9287 68.1697 26.5078C67.4472 26.0836 66.8838 25.482 66.4794 24.7031C66.0784 23.9209 65.8778 22.9929 65.8778 21.919C65.8778 21.0937 65.9972 20.358 66.2358 19.7116C66.4777 19.062 66.8158 18.5118 67.25 18.0611C67.6842 17.6103 68.1896 17.2673 68.7663 17.032C69.343 16.7966 69.9678 16.679 70.6406 16.679C71.2173 16.679 71.7543 16.7635 72.2514 16.9325C72.7486 17.0982 73.1894 17.3336 73.5739 17.6385C73.9616 17.9434 74.2782 18.3063 74.5234 18.7273C74.7687 19.1449 74.9261 19.6056 74.9957 20.1094H72.8082ZM81.5645 23.7486V19.3636H83.6824V27H81.649V25.6129H81.5694C81.3971 26.0604 81.1104 26.42 80.7093 26.6918C80.3116 26.9635 79.8261 27.0994 79.2527 27.0994C78.7422 27.0994 78.2931 26.9834 77.9054 26.7514C77.5176 26.5194 77.2143 26.1896 76.9956 25.7621C76.7801 25.3345 76.6708 24.8224 76.6674 24.2259V19.3636H78.7853V23.848C78.7886 24.2988 78.9096 24.6551 79.1483 24.9169C79.3869 25.1787 79.7067 25.3097 80.1078 25.3097C80.363 25.3097 80.6016 25.2517 80.8237 25.1357C81.0458 25.0163 81.2247 24.8407 81.3606 24.6087C81.4998 24.3767 81.5678 24.09 81.5645 23.7486ZM86.6839 29.8636C86.4155 29.8636 86.1636 29.8421 85.9283 29.799C85.6963 29.7592 85.504 29.7079 85.3516 29.6449L85.8288 28.0639C86.0774 28.1402 86.3011 28.1816 86.5 28.1882C86.7022 28.1948 86.8762 28.1484 87.022 28.049C87.1712 27.9496 87.2921 27.7805 87.3849 27.5419L87.5092 27.2188L84.7699 19.3636H86.9972L88.5781 24.9716H88.6577L90.2536 19.3636H92.4957L89.5277 27.8253C89.3852 28.2363 89.1913 28.5942 88.946 28.8991C88.7041 29.2074 88.3975 29.4444 88.0263 29.6101C87.6551 29.7791 87.2076 29.8636 86.6839 29.8636ZM103.149 16.8182H105.301V23.4304C105.301 24.1728 105.124 24.8224 104.769 25.3793C104.418 25.9361 103.926 26.3703 103.293 26.6818C102.66 26.9901 101.922 27.1442 101.08 27.1442C100.235 27.1442 99.4962 26.9901 98.8631 26.6818C98.2301 26.3703 97.7379 25.9361 97.3865 25.3793C97.0352 24.8224 96.8596 24.1728 96.8596 23.4304V16.8182H99.0123V23.2464C99.0123 23.6342 99.0968 23.9789 99.2658 24.2805C99.4382 24.5821 99.6801 24.8191 99.9917 24.9915C100.303 25.1638 100.666 25.25 101.08 25.25C101.498 25.25 101.861 25.1638 102.169 24.9915C102.481 24.8191 102.721 24.5821 102.89 24.2805C103.062 23.9789 103.149 23.6342 103.149 23.2464V16.8182ZM109.225 16.8182V27H107.072V16.8182H109.225Z" fill="black"/>
<path d="M9.43391 28.3219C5.62165 25.9983 5.59197 20.4735 9.37906 18.1091L25.6154 7.97205C29.5995 5.4846 34.7677 8.33251 34.7929 13.0293L34.9009 33.1284C34.9261 37.8252 29.7888 40.7284 25.7782 38.2839L9.43391 28.3219Z" fill="#0357E5"/>
<path d="M31 23C31 26.866 27.866 30 24 30C20.134 30 17 26.866 17 23C17 19.134 20.134 16 24 16C27.866 16 31 19.134 31 23Z" fill="white"/>
<path d="M20.1896 21.8182H20.7585L21.3594 23.2841H21.3849L21.9858 21.8182H22.5547V24H22.1072V22.5799H22.0891L21.5245 23.9893H21.2198L20.6552 22.5746H20.6371V24H20.1896V21.8182Z" fill="black"/>
<path d="M24.3815 22.5234C24.3666 22.4716 24.3456 22.4258 24.3186 22.386C24.2916 22.3455 24.2586 22.3114 24.2195 22.2837C24.1812 22.2553 24.1371 22.2337 24.0874 22.2187C24.0384 22.2038 23.9841 22.1964 23.9244 22.1964C23.8129 22.1964 23.7149 22.2241 23.6304 22.2795C23.5466 22.3349 23.4813 22.4155 23.4344 22.5213C23.3875 22.6264 23.3641 22.755 23.3641 22.9069C23.3641 23.0589 23.3871 23.1882 23.4333 23.2947C23.4795 23.4013 23.5448 23.4826 23.6293 23.5387C23.7139 23.5941 23.8136 23.6218 23.9287 23.6218C24.0331 23.6218 24.1222 23.6033 24.1961 23.5664C24.2707 23.5287 24.3275 23.4758 24.3666 23.4077C24.4063 23.3395 24.4262 23.2589 24.4262 23.1658L24.52 23.1797H23.9575V22.8324H24.8705V23.1072C24.8705 23.299 24.83 23.4638 24.749 23.6015C24.668 23.7386 24.5565 23.8444 24.4145 23.919C24.2724 23.9929 24.1098 24.0298 23.9266 24.0298C23.722 24.0298 23.5423 23.9847 23.3875 23.8945C23.2327 23.8036 23.1119 23.6747 23.0253 23.5078C22.9394 23.3402 22.8964 23.1413 22.8964 22.9112C22.8964 22.7344 22.922 22.5767 22.9731 22.4382C23.0249 22.299 23.0974 22.1811 23.1904 22.0845C23.2835 21.9879 23.3918 21.9144 23.5153 21.864C23.6389 21.8136 23.7728 21.7883 23.917 21.7883C24.0406 21.7883 24.1556 21.8064 24.2621 21.8427C24.3687 21.8782 24.4631 21.9286 24.5455 21.9939C24.6286 22.0593 24.6965 22.1371 24.749 22.2273C24.8016 22.3167 24.8353 22.4155 24.8502 22.5234H24.3815Z" fill="black"/>
<path d="M26.5646 21.8182H27.0259V23.2351C27.0259 23.3942 26.9879 23.5334 26.9119 23.6527C26.8366 23.772 26.7312 23.865 26.5955 23.9318C26.4599 23.9979 26.3018 24.0309 26.1214 24.0309C25.9403 24.0309 25.7819 23.9979 25.6463 23.9318C25.5106 23.865 25.4052 23.772 25.3299 23.6527C25.2546 23.5334 25.217 23.3942 25.217 23.2351V21.8182H25.6783V23.1957C25.6783 23.2788 25.6964 23.3526 25.7326 23.4172C25.7695 23.4819 25.8214 23.5327 25.8881 23.5696C25.9549 23.6065 26.0327 23.625 26.1214 23.625C26.2109 23.625 26.2887 23.6065 26.3547 23.5696C26.4215 23.5327 26.473 23.4819 26.5092 23.4172C26.5462 23.3526 26.5646 23.2788 26.5646 23.1957V21.8182Z" fill="black"/>
</svg>
