<svg width="743" height="25" viewBox="0 0 743 25" fill="none" xmlns="http://www.w3.org/2000/svg">
<path d="M8 11C8 9.34315 9.17485 8 10.6241 8H731.376C732.825 8 734 9.34315 734 11V12C734 13.6569 732.825 15 731.376 15H10.6241C9.17487 15 8 13.6569 8 12V11Z" fill="#D9D9D9"/>
<circle cx="12" cy="12" r="10.25" fill="white" stroke="#D9D9D9" stroke-width="3.5"/>
<path d="M13.1289 8V16H11.4375V9.60547H11.3906L9.55859 10.7539V9.25391L11.5391 8H13.1289Z" fill="black"/>
<circle cx="191" cy="12" r="10.25" fill="#428D06" stroke="#D9D9D9" stroke-width="3.5"/>
<path d="M188.648 16V14.7812L191.496 12.1445C191.738 11.9102 191.941 11.6992 192.105 11.5117C192.272 11.3242 192.398 11.1406 192.484 10.9609C192.57 10.7786 192.613 10.582 192.613 10.3711C192.613 10.1367 192.56 9.9349 192.453 9.76562C192.346 9.59375 192.201 9.46224 192.016 9.37109C191.831 9.27734 191.621 9.23047 191.387 9.23047C191.142 9.23047 190.928 9.27995 190.746 9.37891C190.564 9.47786 190.423 9.61979 190.324 9.80469C190.225 9.98958 190.176 10.2096 190.176 10.4648H188.57C188.57 9.94141 188.689 9.48698 188.926 9.10156C189.163 8.71615 189.495 8.41797 189.922 8.20703C190.349 7.99609 190.841 7.89062 191.398 7.89062C191.971 7.89062 192.47 7.99219 192.895 8.19531C193.322 8.39583 193.654 8.67448 193.891 9.03125C194.128 9.38802 194.246 9.79687 194.246 10.2578C194.246 10.5599 194.186 10.8581 194.066 11.1523C193.949 11.4466 193.74 11.7734 193.438 12.1328C193.135 12.4896 192.71 12.918 192.16 13.418L190.992 14.5625V14.6172H194.352V16H188.648Z" fill="white"/>
<circle cx="371" cy="12" r="10.25" fill="#0357E5" stroke="#D9D9D9" stroke-width="3.5"/>
<path d="M371.605 16.1094C371.022 16.1094 370.503 16.0091 370.047 15.8086C369.594 15.6055 369.236 15.3268 368.973 14.9727C368.712 14.6159 368.578 14.2044 368.57 13.7383H370.273C370.284 13.9336 370.348 14.1055 370.465 14.2539C370.585 14.3997 370.743 14.513 370.941 14.5938C371.139 14.6745 371.362 14.7148 371.609 14.7148C371.867 14.7148 372.095 14.6693 372.293 14.5781C372.491 14.487 372.646 14.3607 372.758 14.1992C372.87 14.0378 372.926 13.8516 372.926 13.6406C372.926 13.4271 372.866 13.2383 372.746 13.0742C372.629 12.9076 372.46 12.7773 372.238 12.6836C372.02 12.5898 371.759 12.543 371.457 12.543H370.711V11.3008H371.457C371.712 11.3008 371.938 11.2565 372.133 11.168C372.331 11.0794 372.484 10.957 372.594 10.8008C372.703 10.6419 372.758 10.457 372.758 10.2461C372.758 10.0456 372.71 9.86979 372.613 9.71875C372.52 9.5651 372.387 9.44531 372.215 9.35937C372.046 9.27344 371.848 9.23047 371.621 9.23047C371.392 9.23047 371.182 9.27214 370.992 9.35547C370.802 9.4362 370.65 9.55208 370.535 9.70312C370.421 9.85417 370.359 10.0312 370.352 10.2344H368.73C368.738 9.77344 368.87 9.36719 369.125 9.01562C369.38 8.66406 369.724 8.38932 370.156 8.19141C370.591 7.99089 371.082 7.89062 371.629 7.89062C372.181 7.89062 372.664 7.99089 373.078 8.19141C373.492 8.39193 373.814 8.66276 374.043 9.00391C374.275 9.34245 374.389 9.72266 374.387 10.1445C374.389 10.5924 374.25 10.9661 373.969 11.2656C373.69 11.5651 373.327 11.7552 372.879 11.8359V11.8984C373.467 11.974 373.915 12.1784 374.223 12.5117C374.533 12.8424 374.686 13.2565 374.684 13.7539C374.686 14.2096 374.555 14.6146 374.289 14.9688C374.026 15.3229 373.663 15.6016 373.199 15.8047C372.736 16.0078 372.204 16.1094 371.605 16.1094Z" fill="white"/>
<circle cx="551" cy="12" r="10.25" fill="#1E1E1E" stroke="#D9D9D9" stroke-width="3.5"/>
<path d="M548.527 14.5938V13.2617L551.867 8H553.016V9.84375H552.336L550.23 13.1758V13.2383H554.977V14.5938H548.527ZM552.367 16V14.1875L552.398 13.5977V8H553.984V16H552.367Z" fill="white"/>
<circle cx="731" cy="12" r="10.25" fill="#996F04" stroke="#D9D9D9" stroke-width="3.5"/>
<path d="M731.57 16.1094C731.018 16.1094 730.526 16.0078 730.094 15.8047C729.664 15.6016 729.323 15.3216 729.07 14.9648C728.818 14.6081 728.686 14.1992 728.676 13.7383H730.316C730.335 14.0482 730.465 14.2995 730.707 14.4922C730.949 14.6849 731.237 14.7812 731.57 14.7812C731.836 14.7812 732.07 14.7227 732.273 14.6055C732.479 14.4857 732.639 14.3203 732.754 14.1094C732.871 13.8958 732.93 13.651 732.93 13.375C732.93 13.0937 732.87 12.8464 732.75 12.6328C732.633 12.4193 732.47 12.2526 732.262 12.1328C732.053 12.013 731.815 11.9518 731.547 11.9492C731.313 11.9492 731.085 11.9974 730.863 12.0937C730.645 12.1901 730.474 12.3216 730.352 12.4883L728.848 12.2188L729.227 8H734.117V9.38281H730.621L730.414 11.3867H730.461C730.602 11.1888 730.814 11.0247 731.098 10.8945C731.382 10.7643 731.699 10.6992 732.051 10.6992C732.533 10.6992 732.962 10.8125 733.34 11.0391C733.717 11.2656 734.016 11.5768 734.234 11.9727C734.453 12.3659 734.561 12.819 734.559 13.332C734.561 13.8711 734.436 14.3503 734.184 14.7695C733.934 15.1862 733.583 15.5143 733.133 15.7539C732.685 15.9909 732.164 16.1094 731.57 16.1094Z" fill="white"/>
</svg>
