<svg width="27" height="22" viewBox="0 0 27 22" fill="none" xmlns="http://www.w3.org/2000/svg">
<path d="M20.975 15.1247H6.04125C5.8625 15.1247 5.71625 15.2794 5.71625 15.4684L5.71219 17.531C5.71219 17.7201 5.85844 17.8748 6.03719 17.8748H20.975C21.1537 17.8748 21.3 17.7201 21.3 17.531V15.4684C21.3 15.2794 21.1537 15.1247 20.975 15.1247ZM20.975 19.2499H6.02906C5.85031 19.2499 5.70406 19.4046 5.70406 19.5936L5.7 21.6562C5.7 21.8453 5.84625 22 6.025 22H20.975C21.1537 22 21.3 21.8453 21.3 21.6562V19.5936C21.3 19.4046 21.1537 19.2499 20.975 19.2499ZM20.975 10.9995H6.04938C5.87063 10.9995 5.72438 11.1542 5.72438 11.3432L5.72031 13.4058C5.72031 13.5949 5.86656 13.7496 6.04531 13.7496H20.975C21.1537 13.7496 21.3 13.5949 21.3 13.4058V11.3432C21.3 11.1542 21.1537 10.9995 20.975 10.9995ZM25.3016 5.02652L14.2475 0.157921C14.0099 0.0536643 13.7552 0 13.498 0C13.2407 0 12.986 0.0536643 12.7484 0.157921L1.69844 5.02652C0.975313 5.3488 0.5 6.09649 0.5 6.93013V21.6562C0.5 21.8453 0.64625 22 0.825 22H4.075C4.25375 22 4.4 21.8453 4.4 21.6562V10.9995C4.4 10.2432 4.99312 9.6244 5.72438 9.6244H21.2756C22.0069 9.6244 22.6 10.2432 22.6 10.9995V21.6562C22.6 21.8453 22.7462 22 22.925 22H26.175C26.3537 22 26.5 21.8453 26.5 21.6562V6.93013C26.5 6.09649 26.0247 5.3488 25.3016 5.02652Z" fill="white"/>
</svg>
