<svg width="23" height="21" viewBox="0 0 23 21" fill="none" xmlns="http://www.w3.org/2000/svg">
<path d="M19.744 0.20459H2.69821C1.41493 0.20459 0.373779 1.17247 0.373779 2.36545V18.2117C0.373779 19.4047 1.41493 20.3726 2.69821 20.3726H19.744C21.0273 20.3726 22.0684 19.4047 22.0684 18.2117V2.36545C22.0684 1.17247 21.0273 0.20459 19.744 0.20459ZM17.376 7.35342C17.3857 7.47947 17.3857 7.61002 17.3857 7.73607C17.3857 11.6391 14.1896 16.1364 8.34948 16.1364C6.54804 16.1364 4.87736 15.6502 3.47302 14.8129C3.72967 14.8399 3.97664 14.8489 4.23814 14.8489C5.72481 14.8489 7.09041 14.3807 8.17999 13.5884C6.78533 13.5614 5.61343 12.7105 5.2115 11.5401C5.7006 11.6076 6.14127 11.6076 6.6449 11.4861C5.19213 11.2114 4.10255 10.023 4.10255 8.58691V8.55089C4.52385 8.77148 5.01779 8.90654 5.53595 8.92454C5.10033 8.65517 4.74321 8.28973 4.49648 7.86084C4.24974 7.43195 4.12106 6.95294 4.12192 6.46657C4.12192 5.91735 4.27688 5.41315 4.55291 4.97648C6.11706 6.76819 8.4657 7.93865 11.1001 8.0647C10.6497 6.06141 12.2623 4.43627 14.1993 4.43627C15.1145 4.43627 15.9378 4.79191 16.5189 5.36813C17.2356 5.24208 17.9232 4.99449 18.5334 4.65685C18.2961 5.34112 17.7973 5.91735 17.1387 6.282C17.7779 6.21897 18.3978 6.05241 18.9692 5.82281C18.5382 6.41255 17.9959 6.93476 17.376 7.35342Z" fill="#D9D9D9"/>
</svg>
